<svg width="540" height="490" viewBox="0 0 540 490" fill="none" xmlns="http://www.w3.org/2000/svg">
<path d="M79.0809 448.782C184.516 503.74 355.484 503.74 460.919 448.782C566.354 393.825 566.367 304.727 460.919 249.77C355.472 194.812 184.516 194.812 79.0809 249.77C-26.354 304.727 -26.3666 393.825 79.0809 448.782Z" fill="#F5F5F5"/>
<path d="M352.4 434.881C384.195 434.881 409.97 422.626 409.97 407.509C409.97 392.391 384.195 380.136 352.4 380.136C320.604 380.136 294.829 392.391 294.829 407.509C294.829 422.626 320.604 434.881 352.4 434.881Z" fill="#EBEBEB"/>
<path d="M454.386 372.456C478.916 372.456 498.802 363.002 498.802 351.339C498.802 339.676 478.916 330.222 454.386 330.222C429.856 330.222 409.97 339.676 409.97 351.339C409.97 363.002 429.856 372.456 454.386 372.456Z" fill="#EBEBEB"/>
<path d="M137.818 345.423C135.31 332.212 126.13 313.384 114.932 302.888C104.161 292.805 88.1723 289.29 81.8021 293.944C75.4318 298.597 79.6076 308.656 91.9719 320.916C105.929 334.739 132.726 373.096 137.818 394.826V345.423Z" fill="#0284C7"/>
<g opacity="0.2">
<path d="M137.818 345.423C135.31 332.213 126.13 313.385 114.932 302.889C104.161 292.805 88.1723 289.29 81.8021 293.944C75.4318 298.598 79.6076 308.656 91.9719 320.916C105.929 334.74 132.726 373.096 137.818 394.826V345.423Z" fill="black"/>
</g>
<path d="M137.818 377.211C137.661 377.209 137.51 377.149 137.394 377.042C137.279 376.936 137.206 376.791 137.191 376.635C134.031 343.358 110.707 305.953 88.2855 298.159C88.129 298.102 88.0008 297.987 87.9282 297.837C87.8556 297.688 87.8444 297.516 87.8968 297.358C87.9536 297.202 88.0693 297.074 88.2191 297.002C88.369 296.929 88.5413 296.918 88.6994 296.97C111.948 305.039 135.21 342.22 138.47 376.523C138.484 376.688 138.433 376.853 138.328 376.981C138.222 377.109 138.071 377.192 137.906 377.211H137.818Z" fill="white"/>
<path d="M137.818 410.802C137.818 410.802 133.479 414.254 119.008 412.903C104.537 411.552 97.0757 401.231 97.0757 396.803C97.0757 392.374 110.38 391.611 113.265 380.627C110.331 383.764 106.428 385.83 102.179 386.494C94.6555 387.908 88.6113 385.506 86.8934 371.832C90.6017 372.373 94.3848 372.061 97.9535 370.919C103.91 369.005 105.327 365.74 103.772 365.039C102.217 364.339 93.9157 365.039 88.5988 363.025C83.2819 361.011 87.3448 333.388 90.8309 331.424C94.317 329.46 110.807 334.089 114.017 336.566C116.876 338.768 120.889 342.583 119.033 350.653C121.231 348.602 122.945 346.089 124.049 343.297C125.604 339.543 126.732 340.419 129.065 341.858C130.465 342.646 131.681 343.723 132.631 345.017C133.58 346.312 134.241 347.794 134.57 349.364C135.134 352.867 134.219 364.952 129.278 368.88C129.278 368.88 134.018 369.48 137.893 361.499C137.893 361.499 145.417 364.526 147.122 369.43C148.828 374.334 150.684 398.341 137.818 410.802Z" fill="#0284C7"/>
<path d="M139.096 413.53C138.943 413.528 138.795 413.472 138.68 413.371C138.565 413.27 138.49 413.131 138.469 412.979C135.159 385.945 114.556 350.428 94.3541 337.092C94.2145 336.999 94.1175 336.855 94.0846 336.691C94.0516 336.526 94.0855 336.356 94.1786 336.216C94.2717 336.077 94.4165 335.98 94.5811 335.948C94.7457 335.915 94.9167 335.948 95.0564 336.041C115.509 349.615 136.438 385.494 139.711 412.829C139.732 412.993 139.687 413.159 139.586 413.291C139.485 413.422 139.336 413.508 139.172 413.53H139.096Z" fill="white"/>
<path d="M140.363 417.306C139.615 416.789 138.999 416.105 138.563 415.308C138.128 414.51 137.885 413.622 137.855 412.715V113.833C137.907 112.893 138.18 111.978 138.653 111.162C139.126 110.347 139.785 109.655 140.577 109.142L328.674 0.778451C329.46 0.286485 330.366 0.0176378 331.294 0.00083859C332.222 -0.0159606 333.136 0.21992 333.94 0.683106C334.743 1.14629 335.405 1.81926 335.854 2.6296C336.302 3.43995 336.521 4.357 336.487 5.28213L145.63 417.206C144.822 417.635 143.924 417.867 143.009 417.885C142.094 417.902 141.187 417.704 140.363 417.306V417.306Z" fill="#E0E0E0"/>
<path d="M142.909 119.514L219.314 69.6355L214.223 66.6956L140.539 109.143C139.747 109.656 139.087 110.348 138.615 111.163C138.142 111.978 137.869 112.894 137.817 113.834V116.574L142.909 119.514Z" fill="#37474F"/>
<path opacity="0.2" d="M142.909 119.514L219.314 69.6355L214.223 66.6956L140.539 109.143C139.747 109.656 139.087 110.348 138.615 111.163C138.142 111.978 137.869 112.894 137.817 113.834V116.574L142.909 119.514Z" fill="#37474F"/>
<path d="M168.427 128.308L138.608 111.194C138.122 112.001 137.85 112.918 137.818 113.858V412.69C137.785 413.614 138.006 414.529 138.455 415.338C138.905 416.147 139.567 416.818 140.37 417.279C141.173 417.741 142.087 417.976 143.014 417.958C143.94 417.941 144.845 417.672 145.63 417.181L168.427 404.108V128.308Z" fill="#263238"/>
<path opacity="0.4" d="M168.427 128.308L138.608 111.194C138.122 112.001 137.85 112.918 137.818 113.858V412.69C137.785 413.614 138.006 414.529 138.455 415.338C138.905 416.147 139.567 416.818 140.37 417.279C141.173 417.741 142.087 417.976 143.014 417.958C143.94 417.941 144.845 417.672 145.63 417.181L168.427 404.108V128.308Z" fill="#263238"/>
<path d="M145.629 417.207L333.727 308.843C334.519 308.33 335.178 307.638 335.651 306.823C336.124 306.008 336.397 305.092 336.448 304.152V5.28283C336.448 3.55642 335.194 2.85585 333.727 3.71906L145.629 112.083C144.838 112.595 144.178 113.288 143.705 114.103C143.233 114.918 142.959 115.833 142.908 116.774V415.643C142.908 417.369 144.125 418.07 145.629 417.207Z" fill="#455A64"/>
<path opacity="0.1" d="M145.629 417.207L333.727 308.843C334.519 308.33 335.178 307.638 335.651 306.823C336.124 306.008 336.397 305.092 336.448 304.152V5.28283C336.448 3.55642 335.194 2.85585 333.727 3.71906L145.629 112.083C144.838 112.595 144.178 113.288 143.705 114.103C143.233 114.918 142.959 115.833 142.908 116.774V415.643C142.908 417.369 144.125 418.07 145.629 417.207Z" fill="#455A64"/>
<path d="M158.533 185.804L203.677 159.783C206.674 158.056 209.106 159.282 209.106 162.523C208.972 164.342 208.411 166.104 207.468 167.667C206.525 169.229 205.226 170.548 203.677 171.517L158.533 197.539C155.524 199.265 153.104 198.039 153.104 194.799C153.235 192.979 153.795 191.216 154.738 189.653C155.682 188.09 156.982 186.771 158.533 185.804V185.804Z" fill="#0284C7"/>
<path d="M158.533 204.27L188.416 187.056C191.413 185.33 193.845 186.556 193.845 189.796C193.711 191.615 193.15 193.377 192.207 194.94C191.264 196.503 189.965 197.822 188.416 198.791L158.533 216.005C155.524 217.731 153.104 216.505 153.104 213.265C153.235 211.445 153.795 209.682 154.738 208.119C155.682 206.556 156.982 205.237 158.533 204.27Z" fill="#0284C7"/>
<path d="M155.273 235.871L161.116 232.506C162.37 231.818 163.286 232.38 163.286 233.757V240.487C163.245 241.239 163.028 241.97 162.651 242.622C162.274 243.274 161.748 243.829 161.116 244.24L155.273 247.555C154.019 248.256 153.104 247.693 153.104 246.304V239.574C153.153 238.831 153.374 238.11 153.751 237.467C154.127 236.825 154.648 236.278 155.273 235.871Z" fill="#0284C7"/>
<path opacity="0.2" d="M155.273 235.871L161.116 232.506C162.37 231.818 163.286 232.38 163.286 233.757V240.487C163.245 241.239 163.028 241.97 162.651 242.622C162.274 243.274 161.748 243.829 161.116 244.24L155.273 247.555C154.019 248.256 153.104 247.693 153.104 246.304V239.574C153.153 238.831 153.374 238.11 153.751 237.467C154.127 236.825 154.648 236.278 155.273 235.871Z" fill="black"/>
<path d="M155.273 259.352L161.116 255.987C162.37 255.286 163.286 255.849 163.286 257.238V263.969C163.242 264.72 163.023 265.45 162.647 266.101C162.27 266.753 161.746 267.308 161.116 267.722L155.273 271.087C154.019 271.775 153.104 271.212 153.104 269.836V263.105C153.142 262.353 153.359 261.621 153.736 260.969C154.113 260.316 154.64 259.762 155.273 259.352Z" fill="#0284C7"/>
<g opacity="0.2">
<path d="M155.273 259.352L161.116 255.987C162.37 255.286 163.286 255.849 163.286 257.238V263.969C163.242 264.72 163.023 265.45 162.647 266.101C162.27 266.753 161.746 267.308 161.116 267.722L155.273 271.087C154.019 271.775 153.104 271.212 153.104 269.836V263.105C153.142 262.353 153.359 261.621 153.736 260.969C154.113 260.316 154.64 259.762 155.273 259.352Z" fill="black"/>
</g>
<path d="M171.098 253.171L206.41 232.817C207.915 231.954 209.131 232.567 209.131 234.193C209.063 235.103 208.781 235.983 208.309 236.763C207.836 237.544 207.186 238.202 206.41 238.685L171.098 259.039C169.593 259.902 168.377 259.289 168.377 257.663C168.445 256.753 168.727 255.873 169.2 255.093C169.672 254.312 170.323 253.654 171.098 253.171Z" fill="#0284C7"/>
<path opacity="0.2" d="M171.098 253.171L206.41 232.817C207.915 231.954 209.131 232.567 209.131 234.193C209.063 235.103 208.781 235.983 208.309 236.763C207.836 237.544 207.186 238.202 206.41 238.685L171.098 259.039C169.593 259.902 168.377 259.289 168.377 257.663C168.445 256.753 168.727 255.873 169.2 255.093C169.672 254.312 170.323 253.654 171.098 253.171Z" fill="black"/>
<path d="M155.273 282.822L161.116 279.457C162.37 278.756 163.286 279.319 163.286 280.708V287.438C163.243 288.189 163.025 288.92 162.648 289.572C162.271 290.224 161.747 290.778 161.116 291.191L155.273 294.557C154.019 295.245 153.104 294.682 153.104 293.306V286.575C153.142 285.823 153.359 285.091 153.736 284.438C154.113 283.786 154.64 283.232 155.273 282.822V282.822Z" fill="#E0E0E0"/>
<path d="M171.098 276.642L206.41 256.312C207.915 255.449 209.131 256.062 209.131 257.689C209.065 258.598 208.784 259.479 208.311 260.26C207.838 261.041 207.187 261.698 206.41 262.18L171.098 282.534C169.593 283.397 168.377 282.784 168.377 281.158C168.441 280.244 168.721 279.359 169.194 278.574C169.667 277.789 170.32 277.127 171.098 276.642V276.642Z" fill="#F0F0F0"/>
<path d="M155.273 306.352L161.116 302.987C162.37 302.286 163.286 302.849 163.286 304.238V310.969C163.243 311.72 163.025 312.45 162.648 313.102C162.271 313.754 161.747 314.309 161.116 314.722L155.273 318.087C154.019 318.775 153.104 318.212 153.104 316.836V310.105C153.142 309.353 153.359 308.621 153.736 307.969C154.113 307.316 154.64 306.762 155.273 306.352V306.352Z" fill="#E0E0E0"/>
<path d="M171.098 300.173L206.41 279.831C207.915 278.955 209.131 279.581 209.131 281.195C209.065 282.106 208.784 282.989 208.311 283.772C207.839 284.554 207.187 285.214 206.41 285.698L171.098 306.04C169.593 306.903 168.377 306.29 168.377 304.664C168.445 303.755 168.727 302.874 169.2 302.094C169.672 301.314 170.323 300.655 171.098 300.173Z" fill="#F0F0F0"/>
<path d="M155.273 329.822L161.116 326.457C162.37 325.756 163.286 326.319 163.286 327.708V334.438C163.243 335.19 163.025 335.92 162.648 336.572C162.271 337.224 161.747 337.778 161.116 338.192L155.273 341.557C154.019 342.245 153.104 341.682 153.104 340.306V333.575C153.142 332.823 153.359 332.091 153.736 331.439C154.113 330.786 154.64 330.232 155.273 329.822Z" fill="#E0E0E0"/>
<path d="M171.098 323.642L206.41 303.301C207.915 302.425 209.131 303.051 209.131 304.664C209.065 305.576 208.784 306.459 208.311 307.241C207.839 308.024 207.187 308.684 206.41 309.168L171.098 329.51C169.593 330.373 168.377 329.76 168.377 328.134C168.445 327.224 168.727 326.344 169.2 325.564C169.672 324.783 170.323 324.125 171.098 323.642V323.642Z" fill="#F0F0F0"/>
<path d="M155.812 352.916L180.892 338.442C182.397 337.579 183.613 338.192 183.613 339.818C183.545 340.727 183.263 341.608 182.79 342.388C182.317 343.168 181.667 343.827 180.892 344.309L155.812 358.784C154.32 359.647 153.104 359.034 153.104 357.42C153.169 356.51 153.449 355.628 153.919 354.846C154.39 354.064 155.038 353.403 155.812 352.916V352.916Z" fill="#0284C7"/>
<path d="M155.812 364.65L206.41 335.514C207.915 334.651 209.132 335.264 209.132 336.878C209.065 337.789 208.784 338.672 208.311 339.454C207.839 340.237 207.187 340.897 206.41 341.381L155.812 370.518C154.32 371.381 153.104 370.768 153.104 369.154C153.169 368.244 153.449 367.362 153.919 366.58C154.39 365.797 155.038 365.136 155.812 364.65V364.65Z" fill="#0284C7"/>
<path opacity="0.8" d="M155.812 364.65L206.41 335.514C207.915 334.651 209.132 335.264 209.132 336.878C209.065 337.789 208.784 338.672 208.311 339.454C207.839 340.237 207.187 340.897 206.41 341.381L155.812 370.518C154.32 371.381 153.104 370.768 153.104 369.154C153.169 368.244 153.449 367.362 153.919 366.58C154.39 365.797 155.038 365.136 155.812 364.65V364.65Z" fill="white"/>
<path d="M155.812 364.651L191.137 344.309C192.629 343.446 193.845 344.059 193.845 345.685C193.778 346.593 193.497 347.472 193.027 348.253C192.556 349.033 191.909 349.692 191.137 350.177L155.812 370.518C154.32 371.381 153.104 370.768 153.104 369.155C153.169 368.245 153.449 367.363 153.919 366.58C154.39 365.798 155.038 365.137 155.812 364.651V364.651Z" fill="#0284C7"/>
<path d="M155.812 376.41L180.892 361.935C182.397 361.072 183.613 361.685 183.613 363.311C183.545 364.221 183.263 365.101 182.79 365.881C182.317 366.662 181.667 367.32 180.892 367.803L155.812 382.277C154.32 383.14 153.104 382.527 153.104 380.913C153.169 380.003 153.449 379.122 153.919 378.339C154.39 377.557 155.038 376.896 155.812 376.41V376.41Z" fill="#0284C7"/>
<path d="M171.098 229.691L206.41 209.349C207.915 208.486 209.131 209.099 209.131 210.726C209.063 211.635 208.781 212.515 208.309 213.295C207.836 214.076 207.186 214.734 206.41 215.217L171.098 235.558C169.593 236.422 168.377 235.809 168.377 234.195C168.443 233.283 168.724 232.4 169.197 231.618C169.67 230.835 170.321 230.175 171.098 229.691V229.691Z" fill="#0284C7"/>
<path opacity="0.2" d="M171.098 229.691L206.41 209.349C207.915 208.486 209.131 209.099 209.131 210.726C209.063 211.635 208.781 212.515 208.309 213.295C207.836 214.076 207.186 214.734 206.41 215.217L171.098 235.558C169.593 236.422 168.377 235.809 168.377 234.195C168.443 233.283 168.724 232.4 169.197 231.618C169.67 230.835 170.321 230.175 171.098 229.691V229.691Z" fill="black"/>
<path d="M155.812 376.41L180.892 361.935C182.397 361.072 183.613 361.685 183.613 363.311C183.545 364.221 183.263 365.101 182.79 365.881C182.317 366.662 181.667 367.32 180.892 367.803L155.812 382.277C154.32 383.14 153.104 382.527 153.104 380.913C153.169 380.003 153.449 379.122 153.919 378.339C154.39 377.557 155.038 376.896 155.812 376.41V376.41Z" fill="#0284C7"/>
<path d="M155.812 388.108L206.41 358.972C207.915 358.109 209.132 358.722 209.132 360.336C209.065 361.247 208.784 362.13 208.311 362.913C207.839 363.695 207.187 364.355 206.41 364.839L155.812 393.926C154.32 394.801 153.104 394.176 153.104 392.562C153.177 391.661 153.46 390.789 153.93 390.016C154.4 389.243 155.045 388.59 155.812 388.108V388.108Z" fill="#0284C7"/>
<path opacity="0.8" d="M155.812 388.108L206.41 358.972C207.915 358.109 209.132 358.722 209.132 360.336C209.065 361.247 208.784 362.13 208.311 362.913C207.839 363.695 207.187 364.355 206.41 364.839L155.812 393.926C154.32 394.801 153.104 394.176 153.104 392.562C153.177 391.661 153.46 390.789 153.93 390.016C154.4 389.243 155.045 388.59 155.812 388.108V388.108Z" fill="white"/>
<path d="M155.812 388.108L201.319 361.836C202.824 360.973 204.04 361.586 204.04 363.212C203.972 364.121 203.69 365.002 203.218 365.782C202.745 366.562 202.094 367.221 201.319 367.703L155.812 393.975C154.32 394.851 153.104 394.225 153.104 392.611C153.169 391.701 153.449 390.819 153.919 390.037C154.39 389.255 155.038 388.594 155.812 388.108V388.108Z" fill="#0284C7"/>
<path d="M333.752 3.71802L219.313 69.6344V374.759L333.752 308.855C334.544 308.342 335.203 307.65 335.676 306.834C336.149 306.019 336.422 305.104 336.473 304.163V5.2818C336.461 3.60543 335.207 2.85482 333.752 3.71802Z" fill="#EBEBEB"/>
<path opacity="0.6" d="M333.752 3.71802L219.313 69.6344V374.759L333.752 308.855C334.544 308.342 335.203 307.65 335.676 306.834C336.149 306.019 336.422 305.104 336.473 304.163V5.2818C336.461 3.60543 335.207 2.85482 333.752 3.71802Z" fill="#FAFAFA"/>
<path d="M219.314 81.3688V104.838L209.132 116.573H219.314V140.042L326.279 78.4289V19.756L219.314 81.3688Z" fill="#0284C7"/>
<g opacity="0.6">
<path d="M233.309 82.1825L276.647 57.1621C278.741 55.9111 280.408 56.9369 280.408 59.3514C280.339 60.6632 279.963 61.9407 279.31 63.0813C278.656 64.2219 277.744 65.1938 276.647 65.9192L233.309 90.8771C231.202 92.1281 229.547 91.1023 229.547 88.6878C229.623 87.3861 230.002 86.12 230.655 84.9906C231.309 83.8611 232.217 82.8995 233.309 82.1825V82.1825Z" fill="white"/>
</g>
<path d="M230.863 101.185L314.742 52.8707C315.494 52.4454 316.096 52.7456 316.096 53.5588C316.064 54.0139 315.924 54.455 315.689 54.8463C315.454 55.2375 315.129 55.5679 314.742 55.8106L230.863 104.063C230.111 104.488 229.509 104.188 229.509 103.374C229.551 102.93 229.695 102.502 229.93 102.122C230.164 101.742 230.484 101.422 230.863 101.185V101.185Z" fill="#0284C7"/>
<path d="M230.863 101.185L314.742 52.8707C315.494 52.4454 316.096 52.7456 316.096 53.5588C316.064 54.0139 315.924 54.455 315.689 54.8463C315.454 55.2375 315.129 55.5679 314.742 55.8106L230.863 104.063C230.111 104.488 229.509 104.188 229.509 103.374C229.551 102.93 229.695 102.502 229.93 102.122C230.164 101.742 230.484 101.422 230.863 101.185V101.185Z" fill="#0284C7"/>
<path opacity="0.6" d="M230.863 101.185L314.742 52.8707C315.494 52.4454 316.096 52.7456 316.096 53.5588C316.064 54.0139 315.924 54.455 315.689 54.8463C315.454 55.2375 315.129 55.5679 314.742 55.8106L230.863 104.063C230.111 104.488 229.509 104.188 229.509 103.374C229.551 102.93 229.695 102.502 229.93 102.122C230.164 101.742 230.484 101.422 230.863 101.185V101.185Z" fill="white"/>
<path d="M230.863 109.944L314.742 61.6291C315.494 61.1912 316.096 61.504 316.096 62.3171C316.064 62.7706 315.924 63.2099 315.689 63.5992C315.454 63.9884 315.129 64.3165 314.742 64.5565L230.863 112.871C230.111 113.309 229.509 112.996 229.509 112.183C229.541 111.729 229.681 111.29 229.916 110.901C230.152 110.512 230.476 110.184 230.863 109.944Z" fill="#0284C7"/>
<path opacity="0.6" d="M230.863 109.944L314.742 61.6291C315.494 61.1912 316.096 61.504 316.096 62.3171C316.064 62.7706 315.924 63.2099 315.689 63.5992C315.454 63.9884 315.129 64.3165 314.742 64.5565L230.863 112.871C230.111 113.309 229.509 112.996 229.509 112.183C229.541 111.729 229.681 111.29 229.916 110.901C230.152 110.512 230.476 110.184 230.863 109.944Z" fill="white"/>
<path opacity="0.6" d="M230.863 118.7L314.742 70.386C315.494 69.9606 316.096 70.2609 316.096 71.074C316.064 71.5292 315.924 71.9703 315.689 72.3615C315.454 72.7528 315.129 73.0832 314.742 73.3259L230.863 121.64C230.111 122.066 229.509 121.765 229.509 120.952C229.541 120.497 229.681 120.056 229.916 119.665C230.151 119.274 230.476 118.943 230.863 118.7V118.7Z" fill="white"/>
<path d="M234.023 143.345L239.905 139.967C241.159 139.266 242.074 139.829 242.074 141.218V147.948C242.032 148.7 241.814 149.431 241.437 150.083C241.061 150.735 240.536 151.289 239.905 151.701L234.061 155.067C232.807 155.755 231.892 155.192 231.892 153.816V147.098C231.926 146.349 232.137 145.619 232.508 144.967C232.878 144.315 233.397 143.759 234.023 143.345V143.345Z" fill="#0284C7"/>
<path opacity="0.2" d="M234.023 143.345L239.905 139.967C241.159 139.266 242.074 139.829 242.074 141.218V147.948C242.032 148.7 241.814 149.431 241.437 150.083C241.061 150.735 240.536 151.289 239.905 151.701L234.061 155.067C232.807 155.755 231.892 155.192 231.892 153.816V147.098C231.926 146.349 232.137 145.619 232.508 144.967C232.878 144.315 233.397 143.759 234.023 143.345V143.345Z" fill="white"/>
<path d="M249.848 137.165L285.16 116.811C286.665 115.947 287.881 116.56 287.881 118.187C287.813 119.096 287.531 119.976 287.059 120.757C286.586 121.537 285.936 122.195 285.16 122.678L249.848 143.032C248.343 143.895 247.127 143.282 247.127 141.656C247.195 140.747 247.477 139.866 247.95 139.086C248.423 138.306 249.073 137.648 249.848 137.165V137.165Z" fill="#0284C7"/>
<path opacity="0.8" d="M249.848 137.165L285.16 116.811C286.665 115.947 287.881 116.56 287.881 118.187C287.813 119.096 287.531 119.976 287.059 120.757C286.586 121.537 285.936 122.195 285.16 122.678L249.848 143.032C248.343 143.895 247.127 143.282 247.127 141.656C247.195 140.747 247.477 139.866 247.95 139.086C248.423 138.306 249.073 137.648 249.848 137.165V137.165Z" fill="white"/>
<path d="M233.208 164.362L322.241 113.07C322.993 112.632 323.595 112.945 323.595 113.746C323.564 114.201 323.424 114.643 323.189 115.034C322.954 115.425 322.629 115.756 322.241 115.997L233.208 167.289C232.455 167.727 231.854 167.414 231.854 166.601C231.886 166.148 232.025 165.709 232.261 165.319C232.496 164.93 232.821 164.602 233.208 164.362Z" fill="#0284C7"/>
<path d="M233.208 173.157L322.241 121.866C322.993 121.44 323.595 121.74 323.595 122.554C323.563 123.009 323.423 123.45 323.188 123.841C322.952 124.232 322.628 124.563 322.241 124.805L233.208 176.097C232.455 176.523 231.854 176.222 231.854 175.409C231.886 174.954 232.025 174.513 232.261 174.122C232.496 173.731 232.821 173.4 233.208 173.157Z" fill="#0284C7"/>
<path d="M233.208 181.965L322.241 130.673C322.993 130.235 323.595 130.548 323.595 131.349C323.564 131.804 323.424 132.245 323.189 132.637C322.954 133.028 322.629 133.358 322.241 133.6L233.208 184.892C232.455 185.33 231.854 185.017 231.854 184.217C231.885 183.761 232.024 183.32 232.259 182.928C232.495 182.537 232.82 182.207 233.208 181.965Z" fill="#0284C7"/>
<path d="M233.208 190.784L322.241 139.492C322.993 139.066 323.595 139.367 323.595 140.18C323.563 140.635 323.423 141.076 323.188 141.467C322.952 141.859 322.628 142.189 322.241 142.432L233.208 193.724C232.455 194.149 231.854 193.849 231.854 193.036C231.886 192.58 232.025 192.139 232.261 191.748C232.496 191.357 232.821 191.026 233.208 190.784Z" fill="#0284C7"/>
<path d="M233.208 164.362L322.241 113.07C322.993 112.632 323.595 112.945 323.595 113.746C323.564 114.201 323.424 114.643 323.189 115.034C322.954 115.425 322.629 115.756 322.241 115.997L233.208 167.289C232.455 167.727 231.854 167.414 231.854 166.601C231.886 166.148 232.025 165.709 232.261 165.319C232.496 164.93 232.821 164.602 233.208 164.362Z" fill="#E0E0E0"/>
<path d="M233.208 173.157L322.241 121.866C322.993 121.44 323.595 121.74 323.595 122.554C323.563 123.009 323.423 123.45 323.188 123.841C322.952 124.232 322.628 124.563 322.241 124.805L233.208 176.097C232.455 176.523 231.854 176.222 231.854 175.409C231.886 174.954 232.025 174.513 232.261 174.122C232.496 173.731 232.821 173.4 233.208 173.157Z" fill="#E0E0E0"/>
<path d="M233.208 181.965L322.241 130.673C322.993 130.235 323.595 130.548 323.595 131.349C323.564 131.804 323.424 132.245 323.189 132.637C322.954 133.028 322.629 133.358 322.241 133.6L233.208 184.892C232.455 185.33 231.854 185.017 231.854 184.217C231.885 183.761 232.024 183.32 232.259 182.928C232.495 182.537 232.82 182.207 233.208 181.965Z" fill="#E0E0E0"/>
<path d="M233.208 190.784L322.241 139.492C322.993 139.066 323.595 139.367 323.595 140.18C323.563 140.635 323.423 141.076 323.188 141.467C322.952 141.859 322.628 142.189 322.241 142.432L233.208 193.724C232.455 194.149 231.854 193.849 231.854 193.036C231.886 192.58 232.025 192.139 232.261 191.748C232.496 191.357 232.821 191.026 233.208 190.784Z" fill="#E0E0E0"/>
<path opacity="0.8" d="M233.208 164.362L322.241 113.07C322.993 112.632 323.595 112.945 323.595 113.746C323.564 114.201 323.424 114.643 323.189 115.034C322.954 115.425 322.629 115.756 322.241 115.997L233.208 167.289C232.455 167.727 231.854 167.414 231.854 166.601C231.886 166.148 232.025 165.709 232.261 165.319C232.496 164.93 232.821 164.602 233.208 164.362Z" fill="#E0E0E0"/>
<path opacity="0.8" d="M233.208 173.157L322.241 121.866C322.993 121.44 323.595 121.74 323.595 122.554C323.563 123.009 323.423 123.45 323.188 123.841C322.952 124.232 322.628 124.563 322.241 124.805L233.208 176.097C232.455 176.523 231.854 176.222 231.854 175.409C231.886 174.954 232.025 174.513 232.261 174.122C232.496 173.731 232.821 173.4 233.208 173.157Z" fill="#E0E0E0"/>
<path opacity="0.8" d="M233.208 181.965L322.241 130.673C322.993 130.235 323.595 130.548 323.595 131.349C323.564 131.804 323.424 132.245 323.189 132.637C322.954 133.028 322.629 133.358 322.241 133.6L233.208 184.892C232.455 185.33 231.854 185.017 231.854 184.217C231.885 183.761 232.024 183.32 232.259 182.928C232.495 182.537 232.82 182.207 233.208 181.965Z" fill="#E0E0E0"/>
<path opacity="0.8" d="M233.208 190.784L322.241 139.492C322.993 139.066 323.595 139.367 323.595 140.18C323.563 140.635 323.423 141.076 323.188 141.467C322.952 141.859 322.628 142.189 322.241 142.432L233.208 193.724C232.455 194.149 231.854 193.849 231.854 193.036C231.886 192.58 232.025 192.139 232.261 191.748C232.496 191.357 232.821 191.026 233.208 190.784Z" fill="#E0E0E0"/>
<path d="M233.208 228.164L322.241 176.872C322.993 176.434 323.595 176.747 323.595 177.548C323.564 178.003 323.424 178.445 323.189 178.836C322.954 179.227 322.629 179.558 322.241 179.799L233.208 231.091C232.455 231.529 231.854 231.216 231.854 230.403C231.886 229.95 232.025 229.511 232.261 229.121C232.496 228.732 232.821 228.404 233.208 228.164Z" fill="#E0E0E0"/>
<path d="M233.208 236.959L322.241 185.668C322.993 185.242 323.595 185.542 323.595 186.356C323.563 186.811 323.423 187.252 323.188 187.643C322.952 188.034 322.628 188.365 322.241 188.608L233.208 239.899C232.455 240.325 231.854 240.025 231.854 239.211C231.886 238.756 232.025 238.315 232.261 237.924C232.496 237.533 232.821 237.202 233.208 236.959V236.959Z" fill="#E0E0E0"/>
<path d="M233.208 245.767L322.241 194.475C322.993 194.037 323.595 194.35 323.595 195.151C323.564 195.606 323.424 196.047 323.189 196.439C322.954 196.83 322.629 197.16 322.241 197.402L233.208 248.694C232.455 249.132 231.854 248.819 231.854 248.019C231.885 247.563 232.024 247.122 232.259 246.73C232.495 246.339 232.82 246.009 233.208 245.767V245.767Z" fill="#E0E0E0"/>
<path d="M233.208 254.586L322.241 203.294C322.993 202.868 323.595 203.169 323.595 203.982C323.563 204.437 323.423 204.878 323.188 205.269C322.952 205.661 322.628 205.991 322.241 206.234L233.208 257.526C232.455 257.951 231.854 257.651 231.854 256.838C231.886 256.382 232.025 255.941 232.261 255.55C232.496 255.159 232.821 254.828 233.208 254.586V254.586Z" fill="#E0E0E0"/>
<path opacity="0.8" d="M233.208 228.164L322.241 176.872C322.993 176.434 323.595 176.747 323.595 177.548C323.564 178.003 323.424 178.445 323.189 178.836C322.954 179.227 322.629 179.558 322.241 179.799L233.208 231.091C232.455 231.529 231.854 231.216 231.854 230.403C231.886 229.95 232.025 229.511 232.261 229.121C232.496 228.732 232.821 228.404 233.208 228.164Z" fill="#E0E0E0"/>
<path opacity="0.8" d="M233.208 236.959L322.241 185.668C322.993 185.242 323.595 185.542 323.595 186.356C323.563 186.811 323.423 187.252 323.188 187.643C322.952 188.034 322.628 188.365 322.241 188.608L233.208 239.899C232.455 240.325 231.854 240.025 231.854 239.211C231.886 238.756 232.025 238.315 232.261 237.924C232.496 237.533 232.821 237.202 233.208 236.959V236.959Z" fill="#E0E0E0"/>
<path opacity="0.8" d="M233.208 245.767L322.241 194.475C322.993 194.037 323.595 194.35 323.595 195.151C323.564 195.606 323.424 196.047 323.189 196.439C322.954 196.83 322.629 197.16 322.241 197.402L233.208 248.694C232.455 249.132 231.854 248.819 231.854 248.019C231.885 247.563 232.024 247.122 232.259 246.73C232.495 246.339 232.82 246.009 233.208 245.767V245.767Z" fill="#E0E0E0"/>
<path opacity="0.8" d="M233.208 254.586L322.241 203.294C322.993 202.868 323.595 203.169 323.595 203.982C323.563 204.437 323.423 204.878 323.188 205.269C322.952 205.661 322.628 205.991 322.241 206.234L233.208 257.526C232.455 257.951 231.854 257.651 231.854 256.838C231.886 256.382 232.025 255.941 232.261 255.55C232.496 255.159 232.821 254.828 233.208 254.586V254.586Z" fill="#E0E0E0"/>
<path d="M233.208 293.217L322.241 241.925C322.993 241.487 323.595 241.8 323.595 242.601C323.564 243.056 323.424 243.498 323.189 243.889C322.954 244.28 322.629 244.611 322.241 244.853L233.208 296.144C232.455 296.582 231.854 296.27 231.854 295.456C231.886 295.003 232.025 294.564 232.261 294.174C232.496 293.785 232.821 293.457 233.208 293.217V293.217Z" fill="#E0E0E0"/>
<path d="M233.208 302.013L322.241 250.721C322.993 250.295 323.595 250.596 323.595 251.409C323.563 251.864 323.423 252.305 323.188 252.696C322.952 253.087 322.628 253.418 322.241 253.661L233.208 304.953C232.455 305.378 231.854 305.078 231.854 304.264C231.886 303.809 232.025 303.368 232.261 302.977C232.496 302.586 232.821 302.255 233.208 302.013V302.013Z" fill="#E0E0E0"/>
<path d="M233.208 310.82L322.241 259.528C322.993 259.09 323.595 259.403 323.595 260.204C323.564 260.659 323.424 261.1 323.189 261.492C322.954 261.883 322.629 262.213 322.241 262.455L233.208 313.747C232.455 314.185 231.854 313.872 231.854 313.072C231.885 312.616 232.024 312.175 232.259 311.783C232.495 311.392 232.82 311.062 233.208 310.82Z" fill="#E0E0E0"/>
<path d="M233.208 319.639L322.241 268.347C322.993 267.922 323.595 268.222 323.595 269.035C323.563 269.49 323.423 269.931 323.188 270.322C322.952 270.714 322.628 271.044 322.241 271.287L233.208 322.579C232.455 323.004 231.854 322.704 231.854 321.891C231.886 321.436 232.025 320.994 232.261 320.603C232.496 320.212 232.821 319.882 233.208 319.639V319.639Z" fill="#E0E0E0"/>
<path opacity="0.8" d="M233.208 293.217L322.241 241.925C322.993 241.487 323.595 241.8 323.595 242.601C323.564 243.056 323.424 243.498 323.189 243.889C322.954 244.28 322.629 244.611 322.241 244.853L233.208 296.144C232.455 296.582 231.854 296.27 231.854 295.456C231.886 295.003 232.025 294.564 232.261 294.174C232.496 293.785 232.821 293.457 233.208 293.217V293.217Z" fill="#E0E0E0"/>
<path opacity="0.8" d="M233.208 302.013L322.241 250.721C322.993 250.295 323.595 250.596 323.595 251.409C323.563 251.864 323.423 252.305 323.188 252.696C322.952 253.087 322.628 253.418 322.241 253.661L233.208 304.953C232.455 305.378 231.854 305.078 231.854 304.264C231.886 303.809 232.025 303.368 232.261 302.977C232.496 302.586 232.821 302.255 233.208 302.013V302.013Z" fill="#E0E0E0"/>
<path opacity="0.8" d="M233.208 310.82L322.241 259.528C322.993 259.09 323.595 259.403 323.595 260.204C323.564 260.659 323.424 261.1 323.189 261.492C322.954 261.883 322.629 262.213 322.241 262.455L233.208 313.747C232.455 314.185 231.854 313.872 231.854 313.072C231.885 312.616 232.024 312.175 232.259 311.783C232.495 311.392 232.82 311.062 233.208 310.82Z" fill="#E0E0E0"/>
<path opacity="0.8" d="M233.208 319.639L322.241 268.347C322.993 267.922 323.595 268.222 323.595 269.035C323.563 269.49 323.423 269.931 323.188 270.322C322.952 270.714 322.628 271.044 322.241 271.287L233.208 322.579C232.455 323.004 231.854 322.704 231.854 321.891C231.886 321.436 232.025 320.994 232.261 320.603C232.496 320.212 232.821 319.882 233.208 319.639V319.639Z" fill="#E0E0E0"/>
<path d="M234.023 207.884L239.905 204.519C241.159 203.831 242.074 204.394 242.074 205.77V212.526C242.035 213.278 241.818 214.01 241.441 214.662C241.064 215.315 240.538 215.869 239.905 216.279L234.061 219.644C232.807 220.332 231.892 219.782 231.892 218.393V211.662C231.923 210.91 232.133 210.175 232.503 209.518C232.874 208.862 233.395 208.302 234.023 207.884V207.884Z" fill="#0284C7"/>
<path opacity="0.2" d="M234.023 207.884L239.905 204.519C241.159 203.831 242.074 204.394 242.074 205.77V212.526C242.035 213.278 241.818 214.01 241.441 214.662C241.064 215.315 240.538 215.869 239.905 216.279L234.061 219.644C232.807 220.332 231.892 219.782 231.892 218.393V211.662C231.923 210.91 232.133 210.175 232.503 209.518C232.874 208.862 233.395 208.302 234.023 207.884V207.884Z" fill="white"/>
<path d="M249.848 201.705L285.16 181.363C286.665 180.5 287.881 181.113 287.881 182.727C287.815 183.638 287.534 184.521 287.061 185.304C286.589 186.086 285.937 186.747 285.16 187.231L249.848 207.522C248.343 208.385 247.127 207.772 247.127 206.159C247.201 205.256 247.485 204.383 247.958 203.61C248.43 202.836 249.078 202.184 249.848 201.705V201.705Z" fill="#0284C7"/>
<path opacity="0.8" d="M249.848 201.705L285.16 181.363C286.665 180.5 287.881 181.113 287.881 182.727C287.815 183.638 287.534 184.521 287.061 185.304C286.589 186.086 285.937 186.747 285.16 187.231L249.848 207.522C248.343 208.385 247.127 207.772 247.127 206.159C247.201 205.256 247.485 204.383 247.958 203.61C248.43 202.836 249.078 202.184 249.848 201.705V201.705Z" fill="white"/>
<path d="M234.023 272.439L239.905 269.073C241.159 268.373 242.074 268.936 242.074 270.324V277.055C242.034 277.807 241.817 278.538 241.44 279.191C241.063 279.843 240.537 280.397 239.905 280.808L234.061 284.173C232.807 284.861 231.892 284.298 231.892 282.922V276.192C231.926 275.443 232.137 274.713 232.508 274.061C232.878 273.409 233.397 272.853 234.023 272.439V272.439Z" fill="#0284C7"/>
<path opacity="0.2" d="M234.023 272.439L239.905 269.073C241.159 268.373 242.074 268.936 242.074 270.324V277.055C242.034 277.807 241.817 278.538 241.44 279.191C241.063 279.843 240.537 280.397 239.905 280.808L234.061 284.173C232.807 284.861 231.892 284.298 231.892 282.922V276.192C231.926 275.443 232.137 274.713 232.508 274.061C232.878 273.409 233.397 272.853 234.023 272.439V272.439Z" fill="white"/>
<path d="M249.848 266.32L285.16 245.966C286.665 245.103 287.881 245.716 287.881 247.342C287.814 248.253 287.533 249.136 287.06 249.918C286.587 250.701 285.936 251.361 285.16 251.846L249.848 272.187C248.343 273.05 247.127 272.437 247.127 270.811C247.195 269.902 247.477 269.022 247.95 268.241C248.423 267.461 249.073 266.803 249.848 266.32V266.32Z" fill="#0284C7"/>
<path opacity="0.8" d="M249.848 266.32L285.16 245.966C286.665 245.103 287.881 245.716 287.881 247.342C287.814 248.253 287.533 249.136 287.06 249.918C286.587 250.701 285.936 251.361 285.16 251.846L249.848 272.187C248.343 273.05 247.127 272.437 247.127 270.811C247.195 269.902 247.477 269.022 247.95 268.241C248.423 267.461 249.073 266.803 249.848 266.32V266.32Z" fill="white"/>
<path d="M242.337 329.259L248.181 325.894C249.435 325.206 250.363 325.769 250.363 327.145V333.875C250.322 334.628 250.103 335.361 249.723 336.013C249.344 336.665 248.816 337.219 248.181 337.628L242.337 340.994C241.146 341.694 240.168 341.131 240.168 339.743V333.012C240.212 332.261 240.43 331.531 240.807 330.879C241.184 330.228 241.708 329.673 242.337 329.259V329.259Z" fill="#0284C7"/>
<path d="M233.208 352.128L257.322 338.242C258.074 337.817 258.676 338.117 258.676 338.93C258.644 339.385 258.504 339.826 258.269 340.217C258.034 340.609 257.709 340.939 257.322 341.182L233.208 355.068C232.455 355.494 231.854 355.193 231.854 354.38C231.886 353.925 232.025 353.484 232.261 353.093C232.496 352.701 232.821 352.371 233.208 352.128V352.128Z" fill="#E0E0E0"/>
<path d="M274.778 310.569L280.621 307.204C281.812 306.516 282.791 307.079 282.791 308.455V315.185C282.75 315.937 282.532 316.668 282.155 317.32C281.778 317.972 281.253 318.527 280.621 318.938L274.778 322.304C273.524 322.992 272.596 322.441 272.596 321.053V314.322C272.638 313.569 272.857 312.837 273.236 312.185C273.616 311.533 274.144 310.979 274.778 310.569V310.569Z" fill="#0284C7"/>
<path d="M265.637 333.438L289.751 319.552C290.503 319.114 291.105 319.426 291.105 320.24C291.073 320.693 290.933 321.132 290.698 321.522C290.462 321.911 290.138 322.239 289.751 322.479L265.637 336.378C264.884 336.816 264.282 336.503 264.282 335.702C264.312 335.245 264.45 334.801 264.685 334.407C264.921 334.013 265.247 333.681 265.637 333.438Z" fill="#E0E0E0"/>
<path d="M307.206 291.879L313.049 288.514C314.24 287.813 315.219 288.376 315.219 289.765V296.495C315.176 297.246 314.958 297.977 314.581 298.629C314.204 299.28 313.679 299.835 313.049 300.248L307.206 303.613C305.952 304.301 305.036 303.739 305.036 302.362V295.632C305.075 294.88 305.292 294.148 305.669 293.495C306.046 292.843 306.573 292.289 307.206 291.879V291.879Z" fill="#0284C7"/>
<path opacity="0.2" d="M242.337 329.259L248.181 325.894C249.435 325.206 250.363 325.769 250.363 327.145V333.875C250.322 334.628 250.103 335.361 249.723 336.013C249.344 336.665 248.816 337.219 248.181 337.628L242.337 340.994C241.146 341.694 240.168 341.131 240.168 339.743V333.012C240.212 332.261 240.43 331.531 240.807 330.879C241.184 330.228 241.708 329.673 242.337 329.259V329.259Z" fill="white"/>
<path opacity="0.2" d="M274.778 310.569L280.621 307.204C281.812 306.516 282.791 307.079 282.791 308.455V315.185C282.75 315.937 282.532 316.668 282.155 317.32C281.778 317.972 281.253 318.527 280.621 318.938L274.778 322.304C273.524 322.992 272.596 322.441 272.596 321.053V314.322C272.638 313.569 272.857 312.837 273.236 312.185C273.616 311.533 274.144 310.979 274.778 310.569V310.569Z" fill="white"/>
<path opacity="0.2" d="M307.206 291.879L313.049 288.514C314.24 287.813 315.219 288.376 315.219 289.765V296.495C315.176 297.246 314.958 297.977 314.581 298.629C314.204 299.28 313.679 299.835 313.049 300.248L307.206 303.613C305.952 304.301 305.036 303.739 305.036 302.362V295.632C305.075 294.88 305.292 294.148 305.669 293.495C306.046 292.843 306.573 292.289 307.206 291.879V291.879Z" fill="white"/>
<path d="M298.064 314.748L322.178 300.862C322.931 300.424 323.533 300.737 323.533 301.537C323.501 301.993 323.362 302.434 323.127 302.826C322.891 303.217 322.566 303.547 322.178 303.789L298.064 317.675C297.325 318.113 296.71 317.801 296.71 316.987C296.745 316.535 296.886 316.097 297.121 315.708C297.356 315.319 297.679 314.99 298.064 314.748V314.748Z" fill="#E0E0E0"/>
<path d="M178.572 106.013C164.502 113.92 153.104 133.623 153.104 150.012C153.104 166.4 164.502 173.131 178.572 165.024C192.642 156.917 204.04 137.226 204.04 121.013C204.04 104.8 192.629 98.0942 178.572 106.013Z" fill="#FAFAFA"/>
<path d="M190.911 156.516L170.521 161.971C170.17 162.085 169.796 162.11 169.433 162.043C169.069 161.977 168.728 161.821 168.441 161.59C168.153 161.359 167.928 161.06 167.785 160.72C167.643 160.38 167.587 160.01 167.624 159.644V125.015C167.696 122.149 168.656 119.375 170.371 117.075C172.087 114.774 174.474 113.06 177.205 112.167L184.177 110.303C189.481 108.89 193.783 112.343 193.783 118.01V152.65C193.76 153.511 193.472 154.344 192.958 155.035C192.444 155.727 191.73 156.244 190.911 156.516V156.516Z" fill="#37474F"/>
<path d="M191.89 165.474L189.745 156.028C189.745 156.028 189.745 143.28 187.927 142.104C186.109 140.928 185.582 140.703 185.582 140.703C187.914 139.903 192.83 139.302 194.36 143.781C195.827 148.009 198.022 158.43 199.062 163.559L191.89 165.474Z" fill="#F28F8F"/>
<path d="M191.713 165.525L184.44 140.817C187.663 139.566 191.801 138.528 193.808 141.843C195.613 144.82 198.497 160.421 199.062 163.561L191.713 165.525Z" fill="#0284C7"/>
<g opacity="0.4">
<path d="M191.713 165.524L184.44 140.817C187.663 139.566 191.801 138.527 193.808 141.843C195.613 144.82 198.497 160.42 199.062 163.56L191.713 165.524Z" fill="black"/>
</g>
<path d="M192.692 165.262L185.544 167.176C185.832 165.128 186.509 163.153 187.538 161.358C188.968 159.302 191.027 157.761 193.406 156.967C192.891 159.701 192.652 162.48 192.692 165.262Z" fill="#0284C7"/>
<path d="M192.692 165.262L185.544 167.176C185.832 165.128 186.509 163.153 187.538 161.358C188.968 159.302 191.027 157.761 193.406 156.967C192.891 159.701 192.652 162.48 192.692 165.262Z" fill="#0284C7"/>
<g opacity="0.7">
<path d="M192.692 165.261L185.544 167.175C185.832 165.127 186.509 163.153 187.538 161.358C188.968 159.301 191.027 157.761 193.406 156.967C192.891 159.701 192.652 162.479 192.692 165.261Z" fill="black"/>
</g>
<path d="M191.162 165.675L171.098 171.016L168.891 164.198C168.891 164.198 174.747 150.525 167.512 147.009C168.427 146.321 176.139 143.319 176.139 143.319L184.428 140.817C186.008 140.391 192.391 143.219 194.008 149.486C194.585 151.701 194.384 153.69 191.137 165.224C191.174 165.374 191.162 165.525 191.162 165.675Z" fill="#0284C7"/>
<path d="M189.507 114.558C190.886 115.058 192.592 118.311 192.429 126.155C192.291 132.81 190.285 134.912 189.281 135.713C187.779 136.463 186.121 136.853 184.441 136.851V140.817C184.441 140.817 187.049 143.319 186.886 145.221C186.723 147.122 183.124 148.473 180.692 147.347C178.915 146.348 177.378 144.973 176.19 143.319V134.187C176.007 134.397 175.783 134.569 175.533 134.693C175.282 134.816 175.01 134.889 174.731 134.907C174.452 134.924 174.172 134.886 173.908 134.795C173.644 134.703 173.401 134.56 173.193 134.374C172.801 134.107 172.467 133.764 172.211 133.365C171.955 132.967 171.781 132.521 171.7 132.055C171.62 131.588 171.633 131.11 171.741 130.649C171.849 130.188 172.048 129.753 172.328 129.37C173.581 127.731 175.776 127.494 176.629 129.132C177.69 126.562 179.59 124.424 182.021 123.065C185.983 120.663 188.14 118.524 189.507 114.558Z" fill="#FFA8A7"/>
<path d="M185.532 126.342C185.537 126.579 185.469 126.812 185.337 127.009C185.204 127.206 185.014 127.357 184.792 127.443C184.698 127.475 184.597 127.484 184.498 127.469C184.4 127.454 184.306 127.415 184.226 127.356C184.146 127.297 184.081 127.22 184.038 127.13C183.994 127.04 183.973 126.941 183.977 126.842C183.971 126.605 184.04 126.372 184.172 126.175C184.305 125.978 184.495 125.826 184.717 125.741C184.811 125.709 184.912 125.699 185.01 125.714C185.109 125.729 185.203 125.768 185.283 125.827C185.363 125.886 185.428 125.964 185.471 126.054C185.514 126.143 185.535 126.242 185.532 126.342V126.342Z" fill="#37474F"/>
<path d="M185.732 131.898L187.538 132.023C187.485 132.298 187.342 132.547 187.13 132.73C186.919 132.914 186.652 133.022 186.372 133.036C185.87 132.999 185.582 132.461 185.732 131.898Z" fill="#F28F8F"/>
<path d="M191.902 122.09L190.334 121.352C190.427 121.11 190.607 120.911 190.839 120.793C191.07 120.675 191.337 120.647 191.588 120.714C191.7 120.783 191.797 120.873 191.874 120.98C191.951 121.087 192.005 121.208 192.034 121.336C192.064 121.464 192.067 121.597 192.044 121.726C192.021 121.856 191.973 121.979 191.902 122.09V122.09Z" fill="#37474F"/>
<path d="M183.275 125.016L184.842 123.427C184.759 123.342 184.659 123.277 184.548 123.234C184.438 123.191 184.32 123.171 184.201 123.177C184.083 123.183 183.967 123.214 183.861 123.268C183.755 123.322 183.662 123.397 183.588 123.489C183.371 123.671 183.221 123.921 183.164 124.198C183.107 124.475 183.146 124.763 183.275 125.016V125.016Z" fill="#37474F"/>
<path d="M191.538 124.141C191.546 124.378 191.478 124.612 191.346 124.81C191.213 125.007 191.022 125.158 190.798 125.242C190.703 125.275 190.601 125.284 190.502 125.268C190.402 125.253 190.308 125.213 190.227 125.152C190.146 125.092 190.082 125.012 190.04 124.921C189.997 124.83 189.978 124.729 189.983 124.629C189.98 124.392 190.049 124.16 190.181 123.963C190.313 123.766 190.502 123.614 190.723 123.528C190.819 123.495 190.921 123.486 191.02 123.501C191.12 123.517 191.214 123.557 191.295 123.617C191.375 123.678 191.44 123.757 191.482 123.849C191.525 123.94 191.544 124.04 191.538 124.141Z" fill="#37474F"/>
<path d="M187.877 124.641L187.99 129.608L190.46 128.132L187.877 124.641Z" fill="#F28F8F"/>
<path d="M184.44 136.851C182.459 137.101 178.371 136.939 177.731 135.388C177.963 136.15 178.473 136.797 179.161 137.202C180.415 138.002 184.44 138.177 184.44 138.177V136.851Z" fill="#F28F8F"/>
<path d="M171.211 171.004L170.371 168.027L172.578 170.642L171.211 171.004Z" fill="#0284C7"/>
<path d="M169.569 171.441C168.668 167.161 167.449 162.954 165.92 158.856C163.813 153.088 166.171 148.109 167.588 147.009C169.005 145.908 176.215 143.318 176.215 143.318C178.823 150.724 179.538 160.645 179.601 168.764L169.569 171.441Z" fill="#0284C7"/>
<path opacity="0.4" d="M169.569 171.441C168.668 167.161 167.449 162.954 165.92 158.856C163.813 153.088 166.171 148.109 167.588 147.009C169.005 145.908 176.215 143.318 176.215 143.318C178.823 150.724 179.538 160.645 179.601 168.764L169.569 171.441Z" fill="black"/>
<path d="M166.007 172.392L158.847 174.306C158.646 174.171 158.458 174.021 158.282 173.855C158.282 173.855 161.668 160.82 162.746 156.491C163.825 152.163 164.652 149.185 167.562 147.008C172.791 150.399 170.371 159.819 170.371 159.819L166.007 172.392Z" fill="#0284C7"/>
<path opacity="0.4" d="M166.007 172.392L158.847 174.306C158.646 174.171 158.458 174.021 158.282 173.855C158.282 173.855 161.668 160.82 162.746 156.491C163.825 152.163 164.652 149.185 167.562 147.008C172.791 150.399 170.371 159.819 170.371 159.819L166.007 172.392Z" fill="black"/>
<path d="M61.7503 89.0884V64.3056C61.6751 59.5017 64.8101 54.6853 71.1678 51.0323C83.7076 43.7889 104.097 43.7889 116.662 51.0323C123.02 54.6853 126.155 59.5017 126.08 64.3056V89.0008C126.08 93.7797 122.995 102.324 116.662 105.965C104.122 113.208 83.7327 113.208 71.1678 105.965C64.8978 102.362 61.7629 93.8798 61.7503 89.1384V89.0884Z" fill="#EBEBEB"/>
<path d="M93.9151 33.5559L146.996 64.1309L93.9151 94.7059L40.834 64.1309L93.9151 33.5559Z" fill="#F5F5F5"/>
<path d="M67.3555 79.405L93.501 64.5179C93.6089 64.4563 93.7279 64.4164 93.8512 64.4007C93.9744 64.385 94.0996 64.3936 94.2196 64.4261C94.3395 64.4587 94.4518 64.5144 94.5502 64.5903C94.6485 64.6661 94.7309 64.7605 94.7926 64.8681C94.8544 64.9758 94.8943 65.0944 94.9101 65.2174C94.9258 65.3404 94.9172 65.4653 94.8846 65.585C94.852 65.7046 94.7961 65.8167 94.7201 65.9148C94.644 66.0129 94.5494 66.0951 94.4415 66.1567L69.2239 80.4809L67.3555 79.405Z" fill="#E0E0E0"/>
<path d="M146.996 64.13V66.3193L93.915 96.8818V94.705L146.996 64.13Z" fill="#E6E6E6"/>
<path d="M40.834 64.13V66.3193L93.9151 96.8818V94.705L40.834 64.13Z" fill="#F0F0F0"/>
<path d="M66.0391 80.8316L67.6567 81.7574C67.9013 81.3589 68.2418 81.0278 68.6474 80.7941L69.2116 80.4688L67.3683 79.418C66.8238 79.7829 66.3693 80.2662 66.0391 80.8316V80.8316Z" fill="#E0E0E0"/>
<path d="M126.142 78.3308L93.915 100.161L61.7754 78.3808L93.915 96.8835L126.142 78.3308Z" fill="#E0E0E0"/>
<path d="M63.9698 106.578C64.4195 106.81 64.9183 106.931 65.4244 106.931C65.9305 106.931 66.4292 106.81 66.879 106.578L69.2741 122.003C69.2741 124.918 61.6875 124.918 61.6875 122.003L63.9698 106.578Z" fill="#F5F5F5"/>
<path d="M63.8322 115.386L63.3557 123.843C63.1993 123.795 63.0481 123.732 62.9043 123.655L63.8322 115.386Z" fill="#EBEBEB"/>
<path d="M67.4181 123.905L66.4149 110.144L67.9072 123.705C67.7483 123.781 67.585 123.848 67.4181 123.905V123.905Z" fill="#EBEBEB"/>
<path d="M65.7128 124.179H65.2363L65.4871 113.258L65.7128 124.179Z" fill="#EBEBEB"/>
<path d="M65.4118 107.867C65.9677 107.854 66.506 107.67 66.9542 107.342C67.1448 107.202 67.2743 106.994 67.3163 106.761C67.3583 106.529 67.3095 106.289 67.1799 106.091C67.0431 105.896 66.8355 105.763 66.6013 105.718C66.3671 105.674 66.1248 105.722 65.9259 105.853C65.8066 105.969 65.647 106.033 65.4808 106.033C65.3146 106.033 65.1549 105.969 65.0356 105.853C64.9381 105.767 64.8235 105.701 64.6993 105.661C64.575 105.621 64.4438 105.607 64.3139 105.621C64.184 105.634 64.0583 105.674 63.9448 105.739C63.8314 105.803 63.7326 105.891 63.6548 105.995C63.577 106.1 63.5219 106.219 63.493 106.346C63.4641 106.474 63.4621 106.605 63.487 106.733C63.5119 106.861 63.5632 106.982 63.6377 107.089C63.7122 107.196 63.8082 107.287 63.9196 107.355C64.3512 107.677 64.8729 107.856 65.4118 107.867V107.867Z" fill="#E0E0E0"/>
<path d="M65.4744 105.465C65.5973 105.467 65.7193 105.444 65.8333 105.398C65.9474 105.352 66.0511 105.284 66.1386 105.198C66.2261 105.112 66.2956 105.01 66.343 104.896C66.3904 104.783 66.4149 104.662 66.4149 104.539V82.6713C66.4161 82.1797 66.5464 81.6969 66.7928 81.2711C67.0392 80.8453 67.3931 80.4913 67.8193 80.2444L94.4414 65.107C94.6528 64.9862 94.8082 64.7873 94.8738 64.5532C94.9395 64.3192 94.9103 64.0687 94.7925 63.856C94.7337 63.7503 94.6546 63.6573 94.5595 63.5824C94.4645 63.5075 94.3555 63.4521 94.2388 63.4196C94.1222 63.387 94.0002 63.3778 93.88 63.3926C93.7598 63.4074 93.6437 63.4458 93.5385 63.5057L66.8537 78.6681C66.1424 79.0778 65.5514 79.6667 65.1399 80.3758C64.7284 81.0849 64.5108 81.8895 64.5088 82.7089V104.577C64.5136 104.698 64.5425 104.818 64.5936 104.928C64.6448 105.039 64.7173 105.138 64.807 105.221C64.8967 105.303 65.0018 105.367 65.1163 105.409C65.2308 105.451 65.3525 105.47 65.4744 105.465V105.465Z" fill="#FAFAFA"/>
<path d="M67.531 104.539C67.5335 104.133 67.415 103.735 67.1905 103.396C66.9661 103.057 66.6458 102.792 66.2702 102.635C65.8946 102.477 65.4808 102.435 65.081 102.513C64.6812 102.591 64.3136 102.785 64.0248 103.071C63.7359 103.358 63.5388 103.723 63.4584 104.122C63.378 104.52 63.418 104.933 63.5733 105.309C63.7286 105.684 63.9922 106.006 64.3306 106.232C64.6691 106.458 65.0672 106.578 65.4745 106.578C65.7439 106.58 66.0111 106.528 66.2605 106.427C66.51 106.325 66.7368 106.175 66.9279 105.985C67.119 105.796 67.2707 105.571 67.3742 105.322C67.4777 105.074 67.531 104.808 67.531 104.539V104.539Z" fill="#F5F5F5"/>
<path d="M63.4429 104.651C63.5286 104.863 63.6589 105.053 63.8251 105.21C63.9914 105.367 64.1895 105.486 64.4061 105.56C64.6226 105.634 64.8525 105.66 65.0802 105.637C65.3078 105.614 65.5278 105.542 65.7251 105.427C65.977 105.275 66.1854 105.062 66.33 104.806C66.4746 104.551 66.5507 104.262 66.5507 103.969C66.5507 103.676 66.4746 103.388 66.33 103.132C66.1854 102.877 65.977 102.663 65.7251 102.512C66.1088 102.565 66.4695 102.725 66.7652 102.974C67.061 103.224 67.2796 103.552 67.3957 103.92C67.5118 104.289 67.5206 104.683 67.421 105.056C67.3214 105.43 67.1176 105.767 66.8332 106.029C66.5488 106.291 66.1956 106.468 65.8147 106.537C65.4338 106.607 65.0409 106.568 64.6817 106.423C64.3225 106.279 64.0119 106.035 63.7859 105.722C63.5599 105.408 63.4279 105.037 63.4053 104.651H63.4429Z" fill="#EBEBEB"/>
<path d="M428.767 92.4647L419.074 86.8977L424.404 85.7717L429.708 89.4622L428.767 92.4647Z" fill="#E0E0E0"/>
<path d="M411.801 42.6369C411.801 27.6246 402.584 20.6564 391.261 27.1742L374.533 36.8071C363.247 43.3249 354.005 60.8893 354.005 75.9516C354.005 76.5646 354.005 77.2026 354.005 77.7405C354.005 78.0783 354.005 78.366 354.005 78.6913C354.005 79.0166 354.068 79.2793 354.093 79.567C354.118 79.8548 354.168 80.2301 354.218 80.5553C354.47 82.3331 354.916 84.0781 355.547 85.7596C355.811 86.3851 356.087 87.0106 356.387 87.536C356.527 87.8262 356.686 88.1063 356.864 88.3742L357.027 88.6369C357.306 89.0851 357.63 89.5042 357.993 89.888C358.193 90.1131 358.381 90.3508 358.594 90.5635L359.247 91.189C359.472 91.3642 359.685 91.5768 359.924 91.752C360.149 91.933 360.388 92.0961 360.638 92.2399L361.378 92.6652C362.337 93.1813 363.375 93.5323 364.451 93.7036C364.533 93.6834 364.619 93.6834 364.701 93.7036C364.99 93.7036 365.253 93.7661 365.542 93.7661C365.846 93.7912 366.152 93.7912 366.457 93.7661C367.263 93.7749 368.067 93.6867 368.852 93.5034C369.322 93.4103 369.786 93.2933 370.244 93.1531C371.709 92.7053 373.115 92.0837 374.432 91.3016L391.16 81.6687C392.307 81.0046 393.405 80.2605 394.446 79.4419C394.446 79.2418 394.446 79.0666 394.446 78.879C394.446 78.6913 394.446 78.291 394.446 78.0658C394.446 77.5654 394.446 77.0525 394.446 76.5396C394.408 63.7416 402.133 48.6418 411.801 42.6369Z" fill="#E0E0E0"/>
<path d="M414.623 31.8164L404.904 26.2368C404.967 26.2368 405.895 32.9798 405.895 32.9798L413.105 33.8305L414.623 31.8164Z" fill="#E0E0E0"/>
<path d="M369.718 97.3818L360.739 92.3027L366.144 89.9883L369.718 97.3818Z" fill="#E0E0E0"/>
<path d="M374.533 91.4512C374.469 95.1585 373.275 98.7586 371.11 101.772C370.708 102.298 371.323 102.76 371.774 102.523C373.824 101.462 375.64 100.003 377.116 98.2317C379.952 94.8877 381.936 90.9089 382.897 86.6348L374.533 91.4512Z" fill="#E0E0E0"/>
<path d="M371.21 102.498L380.928 108.077C380.928 108.077 386.383 103.486 386.383 94.1911L375.837 93.478C375.837 93.478 375.586 99.533 371.21 102.498Z" fill="#E0E0E0"/>
<path d="M397.092 75.1515C397.092 75.6185 397.092 76.0689 397.092 76.5026C397.092 76.7528 397.092 76.9655 397.092 77.2032C397.092 77.4408 397.092 77.641 397.167 77.8662C397.242 78.0914 397.167 78.3666 397.255 78.6168C397.4 79.725 397.661 80.8151 398.032 81.8695C398.086 82.0615 398.153 82.2496 398.233 82.4324C398.324 82.6837 398.429 82.9301 398.546 83.1705C398.644 83.403 398.757 83.6287 398.885 83.8461C398.984 84.064 399.102 84.2733 399.236 84.4716L399.361 84.6718C399.582 85.0164 399.825 85.3465 400.089 85.6601C400.226 85.8424 400.377 86.0139 400.54 86.173L401.017 86.6359C401.179 86.788 401.351 86.93 401.531 87.0612C401.702 87.1936 401.883 87.3148 402.07 87.424C402.258 87.5366 402.434 87.6492 402.634 87.7493L403.211 88.0245L403.813 88.2372C404.18 88.348 404.553 88.4399 404.929 88.5124H405.117C405.326 88.5315 405.536 88.5315 405.744 88.5124C405.969 88.5378 406.196 88.5378 406.421 88.5124C406.96 88.5122 407.498 88.4577 408.026 88.3498C408.45 88.2781 408.868 88.1821 409.28 88.062C410.381 87.7255 411.438 87.2593 412.428 86.6734L424.968 79.4425C426.086 78.7985 427.14 78.0486 428.115 77.2032V77.2032C428.466 76.9029 428.817 76.5776 429.169 76.2524C429.801 75.6649 430.399 75.0426 430.962 74.3884L431.764 73.6628C431.978 73.4126 432.178 73.1498 432.391 72.8871C432.443 72.7962 432.506 72.7121 432.579 72.6369C433.414 71.5355 434.185 70.3868 434.887 69.1966C435.075 68.8839 435.25 68.5586 435.438 68.2333C435.627 67.9081 435.802 67.5828 435.978 67.245C436.153 66.9072 436.316 66.5695 436.492 66.2442L436.968 65.2184C437.131 64.8806 437.282 64.5178 437.432 64.1925C437.696 63.592 437.934 62.9415 438.147 62.366C438.147 62.2534 438.235 62.1408 438.273 62.0282C438.41 61.678 438.523 61.3277 438.636 60.9774C438.862 60.3018 439.063 59.6263 439.263 58.9257C439.704 57.2815 440.035 55.6098 440.254 53.9216C440.254 53.6339 440.317 53.3587 440.354 53.0709C440.392 52.7832 440.354 52.583 440.417 52.3328C440.48 52.0826 440.417 51.8324 440.417 51.5822C440.417 51.1152 440.417 50.6523 440.417 50.1936C440.417 38.9344 433.507 33.6676 425.005 38.5591L412.465 45.8025C404.001 50.669 397.092 63.8422 397.092 75.1515Z" fill="#E0E0E0"/>
<path d="M444.944 43.3619L435.3 37.8324L431.664 40.397L442.912 47.19L444.944 43.3619Z" fill="#E0E0E0"/>
<path d="M411.839 92.9912L402.146 87.4241L409.745 85.1598L411.839 92.9912Z" fill="#E0E0E0"/>
<path d="M423.15 80.6549C423.15 82.6565 425.658 85.3838 428.529 85.8967C428.918 85.9718 428.818 86.8224 428.354 87.1477C426.643 88.0751 424.668 88.4011 422.749 88.0735C421.502 88.0364 420.287 87.6693 419.23 87.0098C418.172 86.3503 417.309 85.4221 416.729 84.3204L423.15 80.6549Z" fill="#0284C7"/>
<path d="M400.967 32.7423L384.226 42.3876C372.94 48.9055 363.711 66.4698 363.711 81.5196C363.711 82.1451 363.711 82.7706 363.711 83.3211C363.711 83.6588 363.711 83.9466 363.711 84.2718C363.711 84.5971 363.774 84.8473 363.811 85.135C363.849 85.4228 363.886 85.8231 363.937 86.1359C364.163 87.907 364.584 89.648 365.191 91.3276C365.454 91.9656 365.73 92.5786 366.031 93.1166C366.169 93.4031 366.328 93.679 366.507 93.9423C366.56 94.0336 366.619 94.1213 366.683 94.205C366.955 94.6777 367.275 95.1219 367.636 95.531C367.837 95.7562 368.037 96.0064 368.25 96.2066L368.89 96.8321C369.116 97.0073 369.341 97.2199 369.567 97.3951C369.794 97.5732 370.033 97.7362 370.282 97.883L371.034 98.3083C371.989 98.8224 373.023 99.1733 374.094 99.3467C374.175 99.319 374.263 99.319 374.345 99.3467C374.633 99.3467 374.909 99.3467 375.185 99.3467C375.49 99.3652 375.795 99.3652 376.1 99.3467C376.906 99.3501 377.71 99.262 378.495 99.084C378.965 98.9908 379.43 98.8739 379.887 98.7336V98.7336C381.349 98.282 382.754 97.665 384.076 96.8947V96.8947C384.014 100.6 382.814 104.198 380.64 107.203C380.238 107.741 380.853 108.204 381.317 107.966C383.369 106.904 385.186 105.44 386.659 103.663C389.487 100.318 391.47 96.3457 392.44 92.0782L391.186 92.7663L400.754 87.2618C401.68 86.7295 402.572 86.1404 403.425 85.4978C403.351 85.1803 403.297 84.8586 403.262 84.5346C403.262 84.3219 403.186 84.0091 403.161 83.6839C403.116 83.4064 403.086 83.1265 403.073 82.8457V82.6956C403.061 82.4872 403.061 82.2784 403.073 82.07C403.073 81.5947 403.073 81.0942 403.073 80.5938C403.073 67.9335 410.597 53.6593 420.278 48.0673L421.344 47.4418C421.244 32.9674 412.127 26.312 400.967 32.7423Z" fill="#F0F0F0"/>
<path d="M434.762 44.1016L422.222 51.3325C413.733 56.2365 406.811 69.4098 406.811 80.719C406.811 81.1819 406.811 81.6322 406.811 82.0701C406.811 82.508 406.811 82.533 406.811 82.7707C406.811 83.0084 406.811 83.2085 406.873 83.4337C406.894 83.6814 406.927 83.9277 406.974 84.1718C407.111 85.2855 407.372 86.3805 407.751 87.437C407.799 87.6308 407.866 87.8194 407.952 87.9999C408.037 88.2479 408.137 88.4902 408.253 88.7255C408.353 88.9608 408.466 89.1905 408.591 89.4136C408.695 89.6319 408.816 89.8411 408.955 90.0391C408.984 90.1101 409.022 90.1774 409.068 90.2393C409.306 90.5896 409.544 90.9148 409.795 91.2276C409.94 91.4071 410.095 91.5784 410.259 91.7405L410.736 92.2034C410.898 92.3555 411.07 92.4976 411.25 92.6287C411.415 92.7638 411.591 92.8851 411.776 92.9915C411.964 93.1041 412.14 93.2167 412.341 93.3168L412.917 93.592L413.519 93.8047C413.886 93.9155 414.259 94.0074 414.635 94.0799H414.823C415.032 94.099 415.242 94.099 415.45 94.0799C415.679 94.1116 415.911 94.1116 416.14 94.0799C416.679 94.083 417.217 94.0327 417.745 93.9298C418.168 93.8572 418.587 93.7611 418.999 93.6421C420.102 93.3103 421.159 92.8438 422.147 92.2534L426.385 89.8264C426.973 90.9165 427.84 91.832 428.897 92.4802C429.954 93.1283 431.164 93.486 432.404 93.517C434.325 93.8398 436.299 93.5094 438.01 92.5787C438.461 92.2909 438.574 91.4403 438.173 91.3277C435.301 90.8148 432.806 88.0875 432.806 86.0859L434.712 84.985C435.828 84.3379 436.882 83.5882 437.859 82.7457V82.7457C438.21 82.4454 438.561 82.1201 438.9 81.7949C439.536 81.2076 440.139 80.5853 440.706 79.9309C440.931 79.6681 441.157 79.4179 441.383 79.1177C441.609 78.8174 441.797 78.6173 442.01 78.3546L442.198 78.1044C443.033 77.003 443.803 75.8543 444.505 74.6641L445.07 73.7008C445.258 73.3755 445.433 73.0502 445.609 72.7125C445.784 72.3747 445.935 72.0369 446.11 71.7116L446.599 70.6858C446.762 70.3355 446.9 69.9852 447.051 69.66C447.314 69.0595 447.565 68.4089 447.778 67.8335L447.891 67.4957C448.029 67.1454 448.154 66.7951 448.255 66.4448C448.493 65.7568 448.681 65.0937 448.894 64.3932C449.335 62.7489 449.666 61.0772 449.885 59.3891C449.885 59.1013 449.948 58.8261 449.973 58.5384C449.998 58.2507 449.973 58.038 450.035 57.8003C450.098 57.5626 450.035 57.2999 450.035 57.0497C450.035 56.5868 450.035 56.1114 450.035 55.6485C450.173 44.4269 443.251 39.2101 434.762 44.1016Z" fill="#F0F0F0"/>
<path d="M334.016 209.585C329.276 208.109 324.411 211.937 321.226 219.668C318.041 227.4 311.357 247.066 310.366 252.307C309.375 257.549 331.797 268.959 331.17 268.658C330.543 268.358 334.016 209.585 334.016 209.585Z" fill="#263238"/>
<path d="M323.595 391.558C322.918 391.809 322.755 393.085 322.654 395.612C322.579 397.526 322.165 400.866 324.41 401.529C326.655 402.192 329.953 401.854 331.395 400.053C333.188 397.801 334.404 395.825 336.962 393.072C339.195 390.695 341.59 388.468 342.493 385.128C343.308 382.101 342.63 380.8 340.561 379.924C337.727 378.673 333.263 382.651 331.044 383.277C329.125 383.815 324.26 391.308 323.595 391.558Z" fill="#263238"/>
<path d="M323.596 389.22V392.322C324.763 393.067 326.112 393.481 327.497 393.518C328.883 393.556 330.252 393.216 331.458 392.535C331.596 392.235 332.273 388.094 332.273 388.094L323.596 389.22Z" fill="#FFA8A7"/>
<path d="M348.788 409.448C348.788 409.448 347.898 412.15 347.422 414.452C347.033 416.328 346.494 419.456 347.146 420.882C347.798 422.308 350.381 423.209 354.356 423.171C356.939 423.171 360.965 424.91 363.711 426.436C366.457 427.963 372.489 428.651 375.486 428.3C379.022 427.888 382.696 425.798 383.273 424.372C383.85 422.946 383.085 421.382 374.733 417.829C374.658 417.829 363.121 414.076 359.071 409.61L348.788 409.448Z" fill="#263238"/>
<path d="M348.788 406.096C348.788 406.096 348.788 408.398 348.788 409.711C348.788 411.025 350.343 412.989 354.381 412.851C357.215 412.751 359.184 411.988 359.071 409.661V406.296L348.788 406.096Z" fill="#FFA8A7"/>
<path d="M321.564 348.023C322.257 342.525 323.488 337.107 325.238 331.847C325.238 331.847 324.135 317.899 323.596 304.675C323.019 290.389 323.596 272.424 323.357 268.871C323.357 268.871 369.567 259.538 370.394 276.052C371.222 292.565 368.563 334.6 368.024 341.856C367.485 349.112 366.218 355.529 364.714 367.289C363.209 379.048 359.071 406.296 359.071 406.296C357.472 407.108 355.698 407.515 353.904 407.48C352.111 407.445 350.353 406.97 348.788 406.096C348.788 406.096 345.54 373.069 345.879 364.699C346.143 358.483 347.214 352.326 349.064 346.384L347.421 320.926C346.644 309.079 345.829 303.412 345.641 298.245L344.65 297.745C344.65 297.745 343.634 318.186 343.095 325.442C342.556 332.698 341.39 339.654 339.333 353.127C337.502 364.812 332.072 389.545 332.072 389.545C326.793 392.397 323.646 389.182 323.646 389.182C323.646 389.182 320.16 358.156 321.564 348.023Z" fill="#455A64"/>
<path d="M345.64 298.282C345.64 298.282 334.43 292.765 328.824 287.798C328.824 287.798 334.028 295.117 340.875 298.369C340.875 298.369 343.308 323.752 343.295 323.252L344.7 298.232L345.64 298.282Z" fill="#37474F"/>
<path d="M355.622 204.355L352.888 219.367L339.295 218.379L342.142 201.352L355.622 204.355Z" fill="#FFA8A7"/>
<path d="M324.937 217.278C326.279 213.2 331.47 208.759 336.662 209.772C344.383 211.075 351.992 212.97 359.422 215.439C364.174 217.128 368.5 221.231 368.902 236.844L371.309 283.332L365.554 284.583L363.547 274.049L362.619 284.583C356.6 286.084 346.154 284.846 339.295 283.332C325 280.217 323.282 274.3 323.282 274.3C323.282 274.3 323.094 248.141 323.52 236.844C323.921 227.186 324.009 220.03 324.937 217.278Z" fill="#37474F"/>
<path d="M365.679 186.565C365.679 186.565 368.977 191.432 368.55 191.945C367.788 192.457 366.938 192.826 366.042 193.033L365.679 186.565Z" fill="#FFA8A7"/>
<path d="M355.622 171.153C358.795 172.755 364.275 175.707 365.78 187.279C367.334 199.164 365.29 202.992 363.685 204.568C362.594 205.632 356.676 205.694 353.716 204.806C349.954 203.692 341.653 200.527 337.841 194.422C333.352 187.242 332.348 177.621 337.414 173.793C344.525 168.414 352.939 169.802 355.622 171.153Z" fill="#FFA8A7"/>
<path d="M366.444 175.131C365.403 177.983 363.648 184.964 356.349 187.879C356.349 187.879 355.309 183.425 351.559 183.901C347.81 184.376 347.17 189.142 349.478 192.107C351.785 195.072 354.017 193.996 354.017 193.996C354.017 193.996 354.519 200.377 350.255 203.267C350.255 203.267 345.101 206.519 339.646 204.017C337.138 202.891 333.715 197.024 331.684 192.207C327.37 182.024 326.756 173.855 333.264 171.278C334.066 166.649 336.16 164.91 340.361 164.047C349.402 162.183 356.237 168.113 363.836 167.074C367.811 166.524 367.635 171.878 366.444 175.131Z" fill="#37474F"/>
<path d="M333.113 172.829L328.85 170.202C329.015 169.907 329.238 169.649 329.506 169.443C329.774 169.236 330.081 169.086 330.409 169.001C330.737 168.917 331.078 168.899 331.413 168.949C331.748 169 332.069 169.117 332.357 169.295C332.644 169.472 332.893 169.706 333.089 169.982C333.284 170.258 333.42 170.57 333.491 170.901C333.562 171.231 333.565 171.572 333.5 171.903C333.435 172.235 333.303 172.55 333.113 172.829V172.829Z" fill="#37474F"/>
<path d="M354.619 209.823L356.174 214.314C356.174 214.314 355.033 216.316 350.18 216.416C345.327 216.516 340.148 214.977 338.543 212.913C338.177 212.509 337.907 212.029 337.751 211.507C337.594 210.986 337.557 210.436 337.64 209.898C337.64 209.898 339.571 205.645 341.402 205.832L341.101 207.684C341.101 207.684 341.515 209.197 345.916 210.361C352.763 212.175 354.619 209.823 354.619 209.823Z" fill="#455A64"/>
<path d="M393.618 239.673C395.575 237.433 396.327 232.467 398.935 229.064C401.543 225.661 402.509 223.172 403.537 224.661C404.904 226.625 401.819 230.565 402.509 230.916C403.199 231.266 405.744 236.495 406.008 239.373C406.271 242.25 398.622 249.506 398.622 249.506L393.618 239.673Z" fill="#FFA8A7"/>
<path d="M354.619 209.823C354.935 209.817 355.246 209.896 355.52 210.052C355.794 210.209 356.02 210.436 356.174 210.711C356.941 212.093 357.628 213.517 358.231 214.977L356.174 214.314L354.619 209.823Z" fill="#455A64"/>
<path d="M402.296 230.515C402.296 230.515 411.538 229.714 412.88 230.515C414.221 231.316 413.82 235.306 412.88 237.758C411.939 240.21 407.224 241.799 402.848 244.752C402.848 244.301 402.296 230.515 402.296 230.515Z" fill="#FFA8A7"/>
<path d="M358.231 215.027C362.206 216.416 365.679 218.004 369.391 224.96C374.156 233.892 383.185 248.179 383.185 248.179L393.58 239.034C393.58 239.034 395.148 237.52 398.07 242.337C398.926 243.633 399.468 245.111 399.653 246.652C399.838 248.194 399.661 249.757 399.136 251.219C399.136 251.219 387.135 265.268 384.84 267.407C382.545 269.547 378.746 267.883 376.276 264.517C373.805 261.152 358.193 241.699 358.193 241.699C358.193 241.699 349.716 230.465 358.231 215.027Z" fill="#37474F"/>
<path d="M465.458 191.67H435.852C434.734 191.67 433.663 191.227 432.873 190.439C432.082 189.651 431.639 188.582 431.639 187.467V140.541C431.639 136.848 433.109 133.307 435.726 130.695C438.344 128.084 441.894 126.617 445.595 126.617H455.753C459.448 126.627 462.988 128.098 465.597 130.709C468.207 133.319 469.672 136.855 469.672 140.541V187.467C469.672 188.582 469.228 189.651 468.438 190.439C467.648 191.227 466.576 191.67 465.458 191.67Z" fill="#37474F"/>
<path d="M430.861 175.657C427.989 184.102 423.174 208.397 423.174 208.397C423.174 208.397 413.142 220.632 409.869 223.597C408.076 225.248 404.038 228.213 404.038 228.213L411.374 233.592C417.997 228.51 424.219 222.926 429.983 216.891C431.265 215.53 432.165 213.856 432.591 212.037L437.607 190.57C437.607 190.57 437.607 173.306 440.253 171.041C442.899 168.777 443.664 168.301 443.664 168.301C440.266 168.051 433.118 169.015 430.861 175.657Z" fill="#F28F8F"/>
<path d="M445.232 168.051C440.555 167.513 434.561 167.614 431.639 172.83C428.717 178.047 423.852 205.019 423.852 205.019C423.852 205.019 428.454 208.585 433.419 208.522L445.232 168.051Z" fill="#0284C7"/>
<path d="M432.228 193.184C433.07 197.205 433.394 201.317 433.193 205.419C432.83 210.824 429.093 220.256 429.093 220.256C429.093 220.256 432.015 223.459 440.253 222.17C446.962 221.132 444.592 200.903 440.742 197.025C438.497 194.711 435.452 193.337 432.228 193.184V193.184Z" fill="#0284C7"/>
<path opacity="0.3" d="M432.228 193.184C433.07 197.205 433.394 201.317 433.193 205.419C432.83 210.824 429.093 220.256 429.093 220.256C429.093 220.256 432.015 223.459 440.253 222.17C446.962 221.132 444.592 200.903 440.742 197.025C438.497 194.711 435.452 193.337 432.228 193.184V193.184Z" fill="black"/>
<path d="M447.727 336.052C447.78 336.975 447.548 337.892 447.062 338.679C445.822 340.723 444.363 342.628 442.711 344.358C440.391 346.86 436.918 349.8 434.422 351.965C433.043 353.216 432.993 354.992 434.974 355.63C438.667 356.527 442.564 355.986 445.871 354.116C448.379 352.79 451.865 346.61 453.922 345.735C456.292 344.671 457.608 344.146 458.411 343.057C459.018 342.439 459.397 341.633 459.485 340.772C459.574 339.911 459.368 339.045 458.9 338.316C457.784 336.239 456.104 333.049 455.414 333.412L455.627 334.063C455.088 335.751 450.473 337.716 448.103 337.253L447.727 336.052Z" fill="#37474F"/>
<path d="M471.891 265.468C472.957 254.209 476.017 236.094 472.882 222.683L431.25 224.885C430.096 238.108 428.742 279.392 430.196 284.12C431.877 289.7 446.887 328.319 447.752 336.088C447.812 337 447.579 337.907 447.087 338.678C445.849 340.727 444.389 342.636 442.736 344.37C441.607 345.621 440.228 346.872 438.773 348.123C438.652 348.301 438.578 348.508 438.56 348.723C438.56 349.974 441.72 350.362 443.576 349.824C445.891 349.009 447.885 347.48 449.269 345.458C450.335 344.044 452.73 341.33 454.285 339.29C454.804 338.661 455.246 337.972 455.602 337.239C456.017 336.323 456.088 335.288 455.803 334.324L455.702 334.011C454.889 331.479 454.383 328.858 454.198 326.205C453.621 317.685 452.153 298.007 450.799 292.765C449.859 288.945 448.43 285.262 446.548 281.806L451.301 244.913C451.301 244.913 451.802 277.44 453.282 285.734C454.448 292.377 454.9 300.684 456.267 312.081C457.521 322.99 458.975 342.205 458.975 342.205C459.012 342.212 459.051 342.212 459.088 342.205V351.388H466.875V346.059C466.875 343.652 467.077 341.25 467.477 338.878C468.731 331.622 471.339 315.021 471.879 309.404C472.731 300.496 469.509 289.3 469.509 289.3C469.509 289.3 470.85 276.452 471.891 265.468Z" fill="#FFA8A7"/>
<path d="M457.22 168.438C457.22 168.438 468.418 169.69 469.76 170.328C459.251 177.696 467.766 194.097 467.766 194.097L463.741 206.695C468.217 212.412 472.08 215.815 474.475 222.082C477.133 229.088 479.491 239.509 478.864 260.864C468.832 268.37 438.31 267.557 426.422 260.864C426.422 260.864 428.429 242.011 430.799 227.362C432.366 217.691 436.065 207.158 435.438 203.592C430.723 189.13 430.422 186.528 431.275 183.301C433.62 174.218 442.899 168.076 445.182 168.076L457.22 168.438Z" fill="#0284C7"/>
<path opacity="0.6" d="M457.22 168.438C457.22 168.438 468.418 169.69 469.76 170.328C459.251 177.696 467.766 194.097 467.766 194.097L463.741 206.695C468.217 212.412 472.08 215.815 474.475 222.082C477.133 229.088 479.491 239.509 478.864 260.864C468.832 268.37 438.31 267.557 426.422 260.864C426.422 260.864 428.429 242.011 430.799 227.362C432.366 217.691 436.065 207.158 435.438 203.592C430.723 189.13 430.422 186.528 431.275 183.301C433.62 174.218 442.899 168.076 445.182 168.076L457.22 168.438Z" fill="white"/>
<path d="M459.013 347.497V346.383C458.035 350.124 456.079 353.539 453.345 356.279C450.837 358.543 447.451 361.17 446.573 363.71C445.696 366.25 450.599 367.388 453.834 367.063C456.969 366.68 459.857 365.173 461.96 362.822C464.016 360.47 463.979 358.869 464.932 357.568C465.885 356.266 468.104 354.84 468.618 353.339C468.779 351.938 468.625 350.52 468.167 349.186C467.803 347.797 467.402 346.258 466.913 346.383V347.247C465.785 348.132 464.386 348.605 462.95 348.585C461.859 348.61 459 348.373 459.013 347.497Z" fill="#37474F"/>
<path d="M466.875 347.222C465.747 348.108 464.348 348.58 462.913 348.561C461.759 348.561 458.95 348.373 458.963 347.497V346.384C457.984 350.125 456.029 353.54 453.295 356.28L451.401 357.969C450.072 359.445 450.448 360.733 453.571 360.996C456.693 361.259 459.439 359.382 461.797 356.492C463.807 353.586 465.509 350.479 466.875 347.222V347.222Z" fill="#FFA8A7"/>
<path d="M437.883 134.286C435.877 135.475 433.394 140.542 433.632 151.075C433.845 160.033 436.755 162.247 438.222 162.885C439.689 163.523 442.498 163.135 445.231 162.685V168.052C445.231 168.052 441.47 172.443 441.683 174.907C441.896 177.372 447.15 177.947 450.699 175.545C453.261 173.563 455.466 171.16 457.22 168.439L457.157 156.092C457.157 156.092 458.775 157.643 461.508 155.266C463.765 153.302 464.518 149.974 462.762 148.198C462.306 147.77 461.755 147.458 461.153 147.286C460.552 147.114 459.918 147.089 459.304 147.211C458.69 147.334 458.115 147.601 457.626 147.99C457.137 148.379 456.748 148.879 456.492 149.449C456.492 149.449 454.975 145.233 448.667 143.194C442.974 141.305 439.877 139.165 437.883 134.286Z" fill="#FFA8A7"/>
<path d="M443.664 148.836C443.664 149.057 443.729 149.272 443.851 149.456C443.973 149.64 444.147 149.784 444.35 149.871C444.553 149.957 444.778 149.982 444.995 149.943C445.212 149.903 445.414 149.801 445.573 149.648C445.733 149.496 445.844 149.3 445.893 149.085C445.942 148.87 445.927 148.645 445.849 148.439C445.771 148.232 445.634 148.053 445.456 147.924C445.277 147.794 445.064 147.72 444.843 147.71C444.691 147.707 444.541 147.733 444.399 147.788C444.258 147.843 444.129 147.925 444.02 148.029C443.91 148.134 443.822 148.259 443.761 148.397C443.7 148.536 443.667 148.685 443.664 148.836V148.836Z" fill="#37474F"/>
<path d="M443.363 156.416L440.742 157.254C440.789 157.428 440.869 157.592 440.98 157.734C441.091 157.877 441.23 157.996 441.388 158.083C441.546 158.171 441.721 158.226 441.901 158.244C442.081 158.263 442.262 158.245 442.435 158.192C442.789 158.072 443.083 157.82 443.256 157.489C443.429 157.159 443.467 156.774 443.363 156.416V156.416Z" fill="#F28F8F"/>
<path d="M434.411 145.369L436.693 143.793C436.596 143.639 436.469 143.506 436.32 143.403C436.171 143.299 436.001 143.227 435.823 143.191C435.645 143.155 435.461 143.155 435.283 143.192C435.105 143.229 434.936 143.301 434.787 143.405C434.481 143.62 434.271 143.945 434.201 144.311C434.13 144.678 434.206 145.057 434.411 145.369V145.369Z" fill="#37474F"/>
<path d="M446.95 146.22L444.655 144.644C444.752 144.491 444.879 144.358 445.028 144.254C445.177 144.151 445.345 144.078 445.523 144.041C445.701 144.003 445.885 144.002 446.063 144.037C446.241 144.072 446.411 144.142 446.561 144.244C446.865 144.463 447.074 144.789 447.146 145.156C447.218 145.523 447.148 145.903 446.95 146.22V146.22Z" fill="#37474F"/>
<path d="M434.937 148.009C434.934 148.23 434.997 148.447 435.118 148.632C435.238 148.818 435.411 148.964 435.614 149.052C435.817 149.141 436.042 149.168 436.26 149.13C436.478 149.091 436.68 148.99 436.841 148.838C437.002 148.686 437.115 148.49 437.165 148.275C437.215 148.06 437.2 147.834 437.123 147.627C437.045 147.42 436.909 147.24 436.729 147.11C436.55 146.98 436.337 146.906 436.115 146.896C435.812 146.889 435.517 147.002 435.297 147.211C435.076 147.419 434.947 147.706 434.937 148.009V148.009Z" fill="#37474F"/>
<path d="M440.253 147.371L440.078 154.151L436.504 153.05L440.253 147.371Z" fill="#F28F8F"/>
<path d="M445.231 162.684C448.116 162.296 454.009 160.595 454.987 158.255C454.615 159.44 453.889 160.483 452.906 161.245C451.125 162.759 445.231 164.473 445.231 164.473V162.684Z" fill="#F28F8F"/>
<path d="M465.684 199.827L457.772 210.51L463.741 206.695L465.684 199.827Z" fill="#0284C7"/>
<path d="M403.349 228.213C401.656 230.39 400.615 234.619 399.725 236.045C398.834 237.471 397.768 238.709 399.725 238.972C401.681 239.235 404.54 235.419 405.606 233.105C406.146 231.799 407.163 230.748 408.452 230.165C407.537 229.852 408.013 226.187 407.374 225.674C407.374 225.674 404.038 227.037 403.349 228.213Z" fill="#F28F8F"/>
<path d="M402.847 244.726C404.615 243.413 404.678 241.799 405.016 239.234C405.355 236.67 412.44 233.893 412.665 235.807C412.891 237.721 413.531 239.322 411.411 241.649C409.292 243.976 406.082 246.453 402.847 244.726Z" fill="#F28F8F"/>
<path d="M457.22 168.438C457.22 168.438 467.703 169.351 469.76 170.327C471.816 171.303 475.239 177.208 472.18 185.777C469.12 194.347 466.336 204.43 466.65 206.457C466.963 208.483 474.274 218.967 474.274 218.967C472.257 220.452 469.976 221.543 467.553 222.182L463.791 214.025L464.668 222.695C460.89 223.612 457.007 224.032 453.119 223.946C453.119 223.946 449.57 190.644 457.22 168.438Z" fill="#0284C7"/>
<path d="M483.052 209.285C483.893 204.356 483.052 202.742 481.322 197.913L472.544 203.58C473.264 205.403 473.687 207.329 473.798 209.285C473.723 210.711 471.779 224.848 469.961 229.777C469.633 230.653 468.989 231.376 468.155 231.803C466.347 232.905 464.708 234.262 463.29 235.832C461.948 237.083 460.869 237.308 461.007 237.733C461.215 238.194 461.585 238.563 462.048 238.768C462.511 238.974 463.033 239.002 463.515 238.847C464.608 238.493 465.655 238.014 466.638 237.42C465.767 239.26 464.607 240.95 463.202 242.425C459.979 245.852 459.691 248.079 465.71 248.542C469.472 248.83 472.619 246.728 476.018 238.659C477.071 235.701 477.938 232.68 478.613 229.614C480.444 222.621 482.225 214.252 483.052 209.285Z" fill="#FFA8A7"/>
<path d="M469.76 170.328C473.986 172.217 475.19 175.945 476.757 181.425C478.325 186.904 483.24 203.343 483.24 203.343C483.24 203.343 479.027 208.347 473.208 206.946L465.684 188.718C465.684 188.718 462.173 176.821 469.76 170.328Z" fill="#0284C7"/>
</svg>
